<svg xmlns="http://www.w3.org/2000/svg" xmlns:xlink="http://www.w3.org/1999/xlink" width="40" zoomAndPan="magnify" viewBox="0 0 30 30.000001" height="40" preserveAspectRatio="xMidYMid meet" version="1.0"><defs><clipPath id="af6728751a"><path d="M 5.054688 4.574219 L 24.652344 4.574219 L 24.652344 24.167969 L 5.054688 24.167969 Z M 5.054688 4.574219 " clip-rule="nonzero"/></clipPath></defs><g clip-path="url(#af6728751a)"><path fill="#e10718" d="M 14.855469 24.167969 C 9.453125 24.167969 5.054688 19.773438 5.054688 14.371094 C 5.054688 8.96875 9.453125 4.574219 14.855469 4.574219 C 20.257812 4.574219 24.652344 8.96875 24.652344 14.371094 C 24.652344 19.773438 20.257812 24.167969 14.855469 24.167969 Z M 14.855469 6.429688 C 10.476562 6.429688 6.914062 9.992188 6.914062 14.371094 C 6.914062 18.75 10.476562 22.3125 14.855469 22.3125 C 19.234375 22.3125 22.796875 18.75 22.796875 14.371094 C 22.796875 9.992188 19.234375 6.429688 14.855469 6.429688 Z M 14.855469 6.429688 " fill-opacity="1" fill-rule="nonzero"/></g><path fill="#e10718" d="M 9.671875 14.355469 L 9.671875 14.433594 C 9.675781 15.078125 10.207031 15.605469 10.851562 15.601562 L 18.867188 15.566406 C 19.515625 15.5625 20.042969 15.03125 20.039062 14.386719 L 20.039062 14.308594 C 20.035156 13.664062 19.503906 13.136719 18.855469 13.140625 L 10.839844 13.175781 C 10.195312 13.179688 9.667969 13.710938 9.671875 14.355469 Z M 9.671875 14.355469 " fill-opacity="1" fill-rule="nonzero"/></svg>