<svg xmlns="http://www.w3.org/2000/svg" xmlns:xlink="http://www.w3.org/1999/xlink" width="40" zoomAndPan="magnify" viewBox="0 0 30 30.000001" height="40" preserveAspectRatio="xMidYMid meet" version="1.0"><defs><clipPath id="336c1067c3"><path d="M 5.054688 4.574219 L 24.652344 4.574219 L 24.652344 24.167969 L 5.054688 24.167969 Z M 5.054688 4.574219 " clip-rule="nonzero"/></clipPath></defs><g clip-path="url(#336c1067c3)"><path fill="#e10718" d="M 14.855469 4.574219 C 9.453125 4.574219 5.054688 8.96875 5.054688 14.371094 C 5.054688 19.773438 9.453125 24.167969 14.855469 24.167969 C 20.257812 24.167969 24.652344 19.773438 24.652344 14.371094 C 24.652344 8.96875 20.257812 4.574219 14.855469 4.574219 Z M 14.855469 22.273438 C 10.496094 22.273438 6.953125 18.726562 6.953125 14.371094 C 6.953125 10.015625 10.496094 6.46875 14.855469 6.46875 C 19.210938 6.46875 22.757812 10.015625 22.757812 14.371094 C 22.757812 18.726562 19.210938 22.273438 14.855469 22.273438 Z M 14.855469 22.273438 " fill-opacity="1" fill-rule="nonzero"/></g><path fill="#e10718" d="M 18.527344 13.421875 L 15.804688 13.421875 L 15.804688 10.695312 C 15.804688 10.171875 15.378906 9.75 14.855469 9.75 C 14.332031 9.75 13.90625 10.171875 13.90625 10.695312 L 13.90625 13.421875 L 11.179688 13.421875 C 10.65625 13.421875 10.230469 13.847656 10.230469 14.371094 C 10.230469 14.894531 10.65625 15.320312 11.179688 15.320312 L 13.90625 15.320312 L 13.90625 18.046875 C 13.90625 18.570312 14.332031 18.992188 14.855469 18.992188 C 15.378906 18.992188 15.804688 18.570312 15.804688 18.046875 L 15.804688 15.320312 L 18.527344 15.320312 C 19.054688 15.320312 19.476562 14.894531 19.476562 14.371094 C 19.476562 13.847656 19.054688 13.421875 18.527344 13.421875 Z M 18.527344 13.421875 " fill-opacity="1" fill-rule="nonzero"/></svg>